<svg xmlns="http://www.w3.org/2000/svg" viewBox="0 0 200 240" role="img" aria-label="Stylized neon silhouette placeholder">
  <defs>
    <radialGradient id="rGlow" cx="50%" cy="38%" r="65%">
      <stop offset="0%" stop-color="#6fc8ff" stop-opacity="0.55"/>
      <stop offset="55%" stop-color="#2ea8ff" stop-opacity="0.22"/>
      <stop offset="100%" stop-color="#2ea8ff" stop-opacity="0"/>
    </radialGradient>
    <linearGradient id="rFill" x1="0" y1="0" x2="0" y2="1">
      <stop offset="0%" stop-color="#8fd4ff"/>
      <stop offset="100%" stop-color="#2ea8ff"/>
    </linearGradient>
    <filter id="rBlur" x="-40%" y="-40%" width="180%" height="180%">
      <feGaussianBlur stdDeviation="3.5"/>
    </filter>
  </defs>
  <rect width="200" height="240" fill="url(#rGlow)"/>
  <g filter="url(#rBlur)" opacity="0.9">
    <path d="M100 44c14 0 24 11 24 25s-10 25-24 25-24-11-24-25 10-25 24-25z" fill="url(#rFill)"/>
    <path d="M62 196c0-30 16-66 38-66s38 36 38 66c0 8-76 8-76 0z" fill="url(#rFill)"/>
  </g>
  <g stroke="#6fc8ff" stroke-width="2.5" fill="none" opacity="0.95">
    <path d="M100 44c14 0 24 11 24 25s-10 25-24 25-24-11-24-25 10-25 24-25z"/>
    <path d="M62 196c0-30 16-66 38-66s38 36 38 66"/>
  </g>
</svg>
