<?xml version="1.0" encoding="UTF-8"?>
<svg id="Calque_2" data-name="Calque 2" xmlns="http://www.w3.org/2000/svg" viewBox="0 0 676.17 676.17">
  <defs>
    <style>
      .cls-1 {
        fill: #fedc00;
      }

      .cls-2 {
        fill: #081c4e;
      }
    </style>
  </defs>
  <g id="Calque_7" data-name="Calque 7">
    <g>
      <path class="cls-2" d="M338.08,0C151.66,0,0,151.66,0,338.08s151.66,338.08,338.08,338.08,338.08-151.66,338.08-338.08S524.51,0,338.08,0ZM338.08,663.17c-179.25,0-325.08-145.83-325.08-325.08S158.83,13,338.08,13s325.08,145.83,325.08,325.08-145.83,325.08-325.08,325.08Z"/>
      <path class="cls-1" d="M338.08,13C158.83,13,13,158.83,13,338.08s145.83,325.08,325.08,325.08,325.08-145.83,325.08-325.08S517.34,13,338.08,13ZM338.08,655.17c-174.84,0-317.08-142.24-317.08-317.08S163.24,21,338.08,21s317.08,142.24,317.08,317.08-142.24,317.08-317.08,317.08Z"/>
      <path class="cls-2" d="M338.08,21C163.24,21,21,163.24,21,338.08s142.24,317.08,317.08,317.08,317.08-142.24,317.08-317.08S512.92,21,338.08,21ZM606.61,343.01c-.01.65-.02,1.29-.04,1.94-.03,1.33-.07,2.66-.13,3.98-.02.68-.05,1.36-.09,2.03-.05,1.1-.11,2.2-.18,3.3-.03.64-.07,1.28-.12,1.92-.06,1.02-.14,2.05-.22,3.07-.58,7.47-1.47,14.85-2.67,22.13-.12.83-.26,1.67-.41,2.5-.14.8-.28,1.6-.43,2.39-.14.78-.28,1.55-.43,2.32-.17.91-.35,1.82-.53,2.73-.37,1.81-.75,3.61-1.16,5.41-.18.83-.37,1.66-.56,2.48-.04.17-.08.33-.12.49-.18.81-.38,1.61-.58,2.41-.36,1.5-.74,3-1.14,4.49-.33,1.24-.66,2.47-1.01,3.7-.2.72-.4,1.44-.61,2.15-.08.27-.15.54-.23.8-.21.7-.41,1.41-.63,2.11-.52,1.75-1.07,3.49-1.63,5.22-.28.87-.56,1.73-.85,2.6-.29.86-.58,1.72-.88,2.58-.29.86-.59,1.72-.91,2.57-.56,1.59-1.14,3.18-1.74,4.75-.38.97-.75,1.94-1.13,2.9-.32.84-.65,1.68-1,2.52-.34.84-.69,1.68-1.03,2.51-1.04,2.51-2.12,5-3.24,7.46-.47,1.03-.94,2.05-1.41,3.07-.95,2.04-1.93,4.07-2.94,6.08-.51,1.01-1.02,2.01-1.53,3.01-2.46,4.8-5.07,9.51-7.82,14.13-.91,1.54-1.83,3.07-2.79,4.59-.68,1.09-1.36,2.18-2.07,3.26-.37.61-.76,1.21-1.16,1.81-.2.3-.39.6-.59.89-.53.83-1.08,1.66-1.65,2.48-1.23,1.86-2.5,3.69-3.81,5.51-.63.91-1.29,1.82-1.96,2.72-.64.9-1.31,1.8-1.99,2.69-.67.89-1.35,1.77-2.03,2.66l-6.34-4.84c2.11-2.74,4.17-5.54,6.16-8.37.51-.7,1.01-1.41,1.49-2.13,2.48-3.56,4.86-7.19,7.14-10.88,1.39-2.21,2.73-4.45,4.03-6.71.45-.75.88-1.5,1.3-2.26,1.3-2.27,2.55-4.56,3.76-6.88.42-.77.82-1.54,1.21-2.31.41-.78.81-1.56,1.19-2.34.4-.78.79-1.56,1.16-2.34.38-.79.76-1.57,1.14-2.36,1.14-2.37,2.23-4.76,3.29-7.16.71-1.6,1.4-3.21,2.07-4.83.33-.82.67-1.63,1-2.44.34-.81.66-1.63.98-2.45.32-.82.64-1.64.95-2.46.32-.82.63-1.64.93-2.47.3-.83.6-1.65.9-2.48.3-.83.59-1.66.88-2.5.58-1.66,1.14-3.34,1.68-5.02.98-3.02,1.9-6.07,2.77-9.13.21-.75.42-1.5.63-2.25,1.1-4.04,2.11-8.11,3.02-12.23.16-.71.32-1.43.47-2.16.67-3.13,1.28-6.29,1.83-9.46.14-.81.28-1.62.41-2.43.08-.45.15-.91.22-1.36.23-1.45.45-2.9.65-4.35.09-.6.18-1.21.25-1.82.09-.63.17-1.26.25-1.9.12-.9.23-1.8.33-2.7.32-2.71.59-5.43.82-8.16.06-.69.12-1.39.17-2.08.06-.83.12-1.66.18-2.5v-.05c.08-1.15.15-2.3.21-3.46,0-.05,0-.1,0-.15.05-1.11.11-2.22.15-3.34.04-.91.07-1.82.09-2.74.03-.68.04-1.36.06-2.05.02-.82.03-1.65.04-2.47.01-1.09.02-2.18.02-3.27s-.01-2.17-.02-3.25c-.01-.8-.02-1.6-.04-2.4-.02-.71-.03-1.43-.06-2.14-.02-.9-.05-1.81-.09-2.71-.04-1.1-.09-2.21-.15-3.31,0-.05,0-.1,0-.16-.06-1.09-.12-2.17-.2-3.26-.08-1.37-.18-2.73-.3-4.09-.08-1.01-.16-2.01-.26-3.01-.1-1.15-.22-2.29-.34-3.43-.1-.91-.2-1.83-.3-2.74-.09-.77-.19-1.55-.29-2.32-.1-.81-.2-1.61-.31-2.42-.26-1.87-.53-3.74-.83-5.61-.12-.76-.24-1.51-.37-2.27-.03-.18-.06-.36-.09-.54-.14-.83-.28-1.66-.44-2.49-.12-.69-.24-1.38-.37-2.06l-.33-1.68c-.26-1.39-.54-2.77-.84-4.15-.18-.87-.37-1.74-.57-2.61-.16-.76-.33-1.52-.52-2.28-.06-.31-.14-.62-.22-.94-.15-.67-.3-1.33-.47-1.98-.67-2.74-1.38-5.47-2.14-8.18-.18-.67-.37-1.33-.56-1.99-.02-.06-.04-.12-.06-.18-.47-1.67-.97-3.33-1.49-4.98-1.04-3.36-2.16-6.7-3.33-10-.88-2.48-1.8-4.94-2.76-7.39-.95-2.44-1.94-4.86-2.97-7.27-.34-.8-.69-1.61-1.04-2.41-.34-.79-.69-1.58-1.05-2.36l-.03-.06c-3.21-7.14-6.73-14.11-10.56-20.88-.43-.76-.86-1.51-1.29-2.26-.86-1.5-1.74-2.99-2.64-4.47-.45-.74-.9-1.48-1.35-2.21-.9-1.48-1.82-2.94-2.77-4.39-1.87-2.91-3.79-5.77-5.79-8.59-.59-.84-1.18-1.67-1.78-2.51-.91-1.27-1.83-2.52-2.77-3.77-.51-.69-1.02-1.38-1.56-2.06-8.86-11.62-18.68-22.47-29.34-32.44l5.46-5.86c2.06,1.93,4.09,3.89,6.08,5.88,2,1.98,3.97,4,5.9,6.06,3.88,4.11,7.62,8.33,11.22,12.67,3.69,4.43,7.24,8.98,10.63,13.65.09.13.19.27.29.4.07.1.15.21.22.31,1.26,1.74,2.5,3.49,3.72,5.26,1.52,2.19,3,4.42,4.44,6.66.48.75.96,1.5,1.44,2.26.96,1.51,1.89,3.02,2.81,4.54.46.77.91,1.53,1.37,2.3.45.77.9,1.54,1.35,2.31.44.78.88,1.55,1.32,2.33.45.78.89,1.56,1.31,2.34.86,1.57,1.71,3.14,2.54,4.72.81,1.53,1.59,3.06,2.36,4.6.06.14.13.28.21.42.78,1.56,1.55,3.13,2.29,4.71.74,1.58,1.48,3.17,2.2,4.77.38.81.74,1.63,1.09,2.46.37.82.73,1.65,1.07,2.48,1.07,2.48,2.09,4.98,3.07,7.5.34.84.66,1.68.97,2.53.33.84.65,1.69.95,2.54.63,1.69,1.24,3.4,1.82,5.11.29.86.59,1.71.87,2.57.3.86.58,1.72.85,2.59.29.86.56,1.72.82,2.59.27.87.54,1.74.8,2.61.26.87.51,1.74.77,2.62.26.87.5,1.75.74,2.63.24.87.48,1.75.72,2.64.23.87.46,1.76.69,2.65.45,1.77.89,3.54,1.3,5.33.22.89.42,1.78.61,2.68.21.89.4,1.79.59,2.69.7,3.31,1.34,6.64,1.92,9.99.11.63.21,1.26.31,1.89.1.57.19,1.15.28,1.72.15.91.29,1.83.42,2.75.09.56.17,1.13.25,1.7.21,1.49.41,2.98.59,4.48.09.7.17,1.41.25,2.12.11.92.21,1.85.31,2.78.2,1.88.38,3.77.54,5.67.07.91.15,1.82.21,2.73.07.94.14,1.88.19,2.82.12,1.88.22,3.76.3,5.65.02.5.04,1,.06,1.5.03.89.06,1.78.08,2.68.02.76.04,1.53.05,2.3.02.68.03,1.37.03,2.06.01.95.02,1.91.02,2.86s-.01,1.92-.02,2.87c0,.69-.01,1.38-.03,2.06Z"/>
      <path class="cls-1" d="M397.29,533.44c1.96-.59,3.91-1.21,5.84-1.87-1.95.65-3.92,1.27-5.9,1.87h.06Z"/>
      <path class="cls-1" d="M338.08,126c-116.94,0-212.08,95.15-212.08,212.09s95.14,212.08,212.08,212.08,212.09-95.14,212.09-212.08-95.14-212.09-212.09-212.09ZM542.1,343.36c-.01.69-.03,1.37-.06,2.06-.06,1.85-.15,3.69-.27,5.53-.02.38-.05.76-.08,1.14-.03.57-.07,1.14-.12,1.7-.07.93-.14,1.86-.23,2.79-.04.51-.09,1.01-.14,1.52-.04.43-.08.87-.13,1.3-.39,3.72-.87,7.4-1.45,11.06-.16.96-.32,1.92-.49,2.88-.05.29-.1.59-.15.88-.13.76-.27,1.51-.42,2.27-.17.91-.35,1.82-.54,2.73-.14.69-.28,1.38-.43,2.07-.69,3.18-1.45,6.34-2.28,9.46-.12.46-.25.93-.38,1.39-.39,1.42-.79,2.84-1.21,4.24-.24.8-.48,1.6-.73,2.4-.81,2.61-1.68,5.2-2.59,7.77-.2.58-.41,1.14-.62,1.71-.29.81-.59,1.61-.89,2.4-.22.58-.44,1.15-.67,1.73-.89,2.26-1.81,4.5-2.77,6.71-.24.57-.48,1.12-.73,1.68-.22.5-.44.99-.66,1.48-.31.67-.61,1.33-.92,1.99-.06.13-.13.27-.19.4-.3.64-.6,1.28-.91,1.92-.57,1.18-1.15,2.36-1.75,3.53-.3.6-.61,1.2-.92,1.8-.22.44-.45.87-.68,1.3-.38.73-.77,1.45-1.16,2.17-.68,1.24-1.36,2.48-2.07,3.71-.64,1.13-1.3,2.26-1.97,3.39-.69,1.15-1.39,2.3-2.1,3.43-.35.57-.71,1.14-1.07,1.7-1.87,2.93-3.81,5.81-5.81,8.63-.7.99-1.41,1.97-2.14,2.95-.4.54-.8,1.08-1.2,1.61-.8,1.07-1.62,2.13-2.44,3.18-.04.04-.07.08-.09.12-.8,1.01-1.6,2.01-2.42,3-.83,1.04-1.69,2.06-2.56,3.08-.86,1.02-1.73,2.03-2.63,3.03-.87,1-1.76,1.99-2.68,2.97-1.8,1.96-3.64,3.89-5.52,5.77-1.87,1.89-3.79,3.74-5.73,5.56-.01,0-.02.01-.03.02-.97.92-1.96,1.82-2.96,2.7-.68.61-1.37,1.22-2.06,1.82-7.62,6.64-15.72,12.71-24.26,18.16-3.11,1.98-6.27,3.89-9.49,5.7-1.17.67-2.34,1.32-3.53,1.95-2.37,1.28-4.76,2.5-7.19,3.69-4.84,2.37-9.79,4.56-14.85,6.54-2.52.99-5.07,1.93-7.65,2.83-.65.22-1.3.45-1.95.66-1.93.66-3.88,1.28-5.84,1.87h-.06l-61.2,2.23-24.41-18.85-48.83-55.31-31.76-50.84-10.78-42.48-17.71-15.76-21.94-55.01,13.9-13.9,19.24,28.61c3.65,5.43,7.76,10.53,12.3,15.24,11.32,11.75,19.27,26.32,23.03,42.19l3.41,14.4,17.98,16.77,32.69,47.58,12.66,52.2,79.97-21.9,37.95-14.72,8.45-12.22,69.98-42.79v-10.72l22.22-28.32-20.48-29.66-19.58-5.58-10.4-30.2-22.29,21.54-33.19,10.6-9.77-8.37-1.78-8.6-.5-13.13-9.69,6.92h-4.87l-23.83-36.14-8.19-27.85,20.98-.96,16.08,25.32,51.16,26.2,26.27-7.32,17.2,20.14,39.72,5.71c.31,3.19.54,6.4.7,9.62.01.14.01.28.02.41.04.73.07,1.46.09,2.18.09,2.46.14,4.94.14,7.42,0,.88-.01,1.76-.02,2.64,0,.88-.02,1.75-.05,2.63Z"/>
      <path class="cls-1" d="M606.66,338.08c0,.96-.01,1.92-.02,2.87,0,.69-.01,1.38-.03,2.06-.01.65-.02,1.29-.04,1.94-.03,1.33-.07,2.66-.13,3.98-.02.68-.05,1.36-.09,2.03-.05,1.1-.11,2.2-.18,3.3-.03.64-.07,1.28-.12,1.92-.06,1.02-.14,2.05-.22,3.07-.58,7.47-1.47,14.85-2.67,22.13-.13.84-.27,1.67-.41,2.5-.14.8-.28,1.6-.43,2.39-.14.78-.28,1.55-.43,2.32-.17.91-.35,1.82-.53,2.73-.37,1.81-.75,3.61-1.16,5.41-.18.83-.37,1.66-.56,2.48-.04.17-.08.33-.12.49-.19.81-.38,1.61-.58,2.41-.37,1.5-.75,3-1.14,4.49-.33,1.24-.66,2.47-1.01,3.7-.2.72-.4,1.44-.61,2.15-.08.27-.15.54-.23.8-.21.7-.41,1.41-.63,2.11-.52,1.75-1.07,3.49-1.63,5.22-.28.87-.56,1.73-.85,2.6-.29.86-.58,1.72-.88,2.58s-.6,1.72-.91,2.57c-.57,1.59-1.15,3.18-1.74,4.75-.38.97-.75,1.94-1.13,2.9-.33.84-.66,1.68-1,2.52-.34.84-.69,1.68-1.03,2.51-1.05,2.5-2.13,4.99-3.24,7.46-.47,1.03-.94,2.05-1.41,3.07-.96,2.04-1.94,4.06-2.94,6.08-.51,1.01-1.02,2.01-1.53,3.01-2.47,4.79-5.08,9.5-7.82,14.13-.92,1.54-1.85,3.07-2.79,4.59-.68,1.09-1.36,2.18-2.07,3.26-.38.61-.77,1.21-1.16,1.81-.2.3-.39.6-.59.89-.54.83-1.09,1.66-1.65,2.48-1.25,1.86-2.52,3.69-3.81,5.51-.65.91-1.3,1.82-1.96,2.72-.66.9-1.32,1.8-1.99,2.69-.67.9-1.34,1.79-2.02,2.67l-6.35-4.85c2.11-2.74,4.17-5.54,6.16-8.37.51-.7,1.01-1.41,1.49-2.13,2.48-3.56,4.86-7.19,7.14-10.88,1.39-2.21,2.73-4.45,4.03-6.71.45-.75.88-1.5,1.3-2.26,1.3-2.27,2.55-4.56,3.76-6.88.42-.77.82-1.54,1.21-2.31.41-.78.81-1.56,1.19-2.34.4-.78.79-1.56,1.16-2.34.38-.79.76-1.57,1.14-2.36,1.14-2.37,2.23-4.76,3.29-7.16.71-1.6,1.4-3.21,2.07-4.83.33-.82.67-1.63,1-2.44.34-.81.66-1.63.98-2.45.32-.82.64-1.64.95-2.46.32-.82.63-1.64.93-2.47.3-.83.6-1.65.9-2.48.3-.83.59-1.66.88-2.5.58-1.66,1.14-3.34,1.68-5.02.98-3.02,1.9-6.07,2.77-9.13.21-.75.42-1.5.63-2.25,1.1-4.04,2.11-8.11,3.02-12.23.16-.71.32-1.43.47-2.16.67-3.13,1.28-6.29,1.83-9.46.14-.81.28-1.62.41-2.43.08-.45.15-.91.22-1.36.23-1.45.45-2.9.65-4.35.09-.6.18-1.21.25-1.82.09-.63.17-1.26.25-1.9.12-.9.23-1.8.33-2.7.32-2.71.59-5.43.82-8.16.06-.69.12-1.39.17-2.08.06-.83.12-1.66.18-2.5v-.05c.08-1.15.15-2.3.21-3.46,0-.05,0-.1,0-.15.05-1.11.11-2.22.15-3.34.04-.91.07-1.82.09-2.74.03-.68.04-1.36.06-2.05.02-.82.03-1.65.04-2.47.01-1.09.02-2.18.02-3.27s-.01-2.17-.02-3.25c-.01-.8-.02-1.6-.04-2.4-.02-.71-.03-1.43-.06-2.14-.02-.9-.05-1.81-.09-2.71-.04-1.1-.09-2.21-.15-3.31,0-.05,0-.1,0-.16-.06-1.09-.12-2.17-.2-3.26-.08-1.37-.18-2.73-.3-4.09-.08-1.01-.16-2.01-.26-3.01-.1-1.15-.22-2.29-.34-3.43-.1-.91-.2-1.83-.3-2.74-.09-.77-.19-1.55-.29-2.32-.1-.81-.2-1.61-.31-2.42-.26-1.87-.53-3.74-.83-5.61-.12-.76-.24-1.51-.37-2.27-.03-.18-.06-.36-.09-.54-.14-.83-.28-1.66-.44-2.49-.12-.69-.24-1.38-.37-2.06l-.33-1.68c-.26-1.39-.54-2.77-.84-4.15-.18-.87-.37-1.74-.57-2.61-.16-.76-.33-1.52-.52-2.28-.06-.31-.14-.62-.22-.94-.15-.67-.3-1.33-.47-1.98-.67-2.74-1.38-5.47-2.14-8.18-.18-.67-.37-1.33-.56-1.99-.02-.06-.04-.12-.06-.18-.47-1.67-.97-3.33-1.49-4.98-1.04-3.36-2.16-6.7-3.33-10-.88-2.48-1.8-4.94-2.76-7.39-.95-2.44-1.94-4.86-2.97-7.27-.34-.8-.69-1.61-1.04-2.41-.34-.79-.69-1.58-1.05-2.36l-.03-.06c-3.21-7.14-6.73-14.11-10.56-20.88-.43-.76-.86-1.51-1.29-2.26-.86-1.5-1.74-2.99-2.64-4.47-.45-.74-.9-1.48-1.35-2.21-.9-1.48-1.82-2.94-2.77-4.39-1.87-2.91-3.79-5.77-5.79-8.59-.59-.84-1.18-1.67-1.78-2.51-.91-1.27-1.83-2.52-2.77-3.77-.51-.69-1.02-1.38-1.56-2.06-8.86-11.62-18.68-22.47-29.34-32.44l5.46-5.86c2.06,1.93,4.09,3.89,6.08,5.88,2,1.99,3.96,4.01,5.9,6.06,3.87,4.11,7.61,8.33,11.22,12.67,2.4,2.89,4.74,5.84,7.03,8.83.35.45.68.91,1.02,1.37.86,1.15,1.73,2.29,2.58,3.45.09.13.19.27.29.4.07.1.15.21.22.31,1.26,1.74,2.5,3.49,3.72,5.26,1.51,2.2,2.99,4.42,4.44,6.66.48.75.96,1.5,1.44,2.26.95,1.5,1.88,3.02,2.81,4.54.46.77.91,1.53,1.37,2.3.45.77.9,1.54,1.35,2.31.44.78.88,1.55,1.32,2.33.44.78.88,1.56,1.31,2.34.86,1.57,1.71,3.14,2.54,4.72.8,1.53,1.58,3.06,2.36,4.6.06.14.13.28.21.42.77,1.56,1.53,3.13,2.29,4.71.74,1.58,1.48,3.17,2.2,4.77.37.82.73,1.64,1.09,2.46.37.83.72,1.65,1.07,2.48,1.06,2.48,2.08,4.98,3.07,7.5.33.84.65,1.69.97,2.53s.64,1.69.95,2.54c.62,1.69,1.23,3.4,1.82,5.11.3.85.59,1.71.87,2.57.29.86.57,1.72.85,2.59.28.86.55,1.73.82,2.59.27.87.54,1.74.8,2.61.26.87.51,1.74.77,2.62.25.87.5,1.75.74,2.63.24.87.48,1.75.72,2.64.23.87.46,1.76.69,2.65.45,1.77.89,3.54,1.3,5.33.21.89.41,1.78.61,2.68.2.89.4,1.79.59,2.69.7,3.31,1.34,6.64,1.92,9.99.11.63.21,1.26.31,1.89.1.57.19,1.15.28,1.72.15.91.29,1.83.42,2.75.09.56.17,1.13.25,1.7.21,1.49.41,2.98.59,4.48.09.7.17,1.41.25,2.12.11.92.21,1.85.31,2.78.2,1.88.38,3.77.54,5.67.07.91.15,1.82.21,2.73.07.94.14,1.88.19,2.82.12,1.88.22,3.76.3,5.65.02.5.04,1,.06,1.5.03.89.06,1.78.08,2.68.02.76.04,1.53.05,2.3.02.68.03,1.37.03,2.06.01.95.02,1.91.02,2.86Z"/>
      <path class="cls-1" d="M544.81,496.52c2.11-2.74,4.17-5.53,6.17-8.36-1.99,2.83-4.05,5.63-6.16,8.37h-.01Z"/>
      <path class="cls-1" d="M557.2,197.2c-1.87-2.9-3.8-5.76-5.79-8.59,2,2.82,3.92,5.68,5.79,8.59Z"/>
      <path class="cls-1" d="M552.47,486.03c2.47-3.57,4.85-7.19,7.14-10.88-2.28,3.69-4.66,7.32-7.14,10.88Z"/>
      <path class="cls-1" d="M559.61,475.15c1.37-2.21,2.72-4.45,4.03-6.71-1.3,2.26-2.64,4.5-4.03,6.71Z"/>
      <path class="cls-1" d="M564.94,466.18c1.28-2.27,2.54-4.56,3.76-6.88-1.21,2.32-2.46,4.61-3.76,6.88Z"/>
      <path class="cls-1" d="M575.81,231.41c-3.21-7.13-6.74-14.1-10.56-20.88,3.83,6.77,7.35,13.74,10.56,20.88Z"/>
      <path class="cls-1" d="M573.4,449.95c1.13-2.37,2.23-4.76,3.29-7.16-1.06,2.4-2.15,4.79-3.29,7.16Z"/>
      <path class="cls-1" d="M77.52,334.76c-.01,1.11-.02,2.21-.02,3.32s.01,2.23.02,3.34v.11c.02,1.09.04,2.18.07,3.27.02,1,.05,2.01.09,3,.01.19.01.38.02.57.04,1.04.09,2.07.14,3.1.05,1.08.12,2.16.18,3.23.12,1.89.26,3.77.42,5.65.05.57.1,1.14.15,1.71.08.8.15,1.6.24,2.4.06.59.12,1.19.19,1.79.07.7.15,1.4.23,2.1.49,4.26,1.09,8.5,1.79,12.7.17,1.03.35,2.07.54,3.1.49,2.75,1.03,5.5,1.61,8.22.18.88.37,1.75.57,2.62.19.87.39,1.75.6,2.62.2.87.41,1.73.62,2.6.24.98.49,1.95.74,2.92.32,1.23.64,2.45.97,3.66.19.7.39,1.4.58,2.1.34,1.18.68,2.36,1.03,3.53.3,1.01.61,2.03.92,3.04.55,1.74,1.11,3.47,1.69,5.19.22.68.46,1.37.7,2.05.21.63.43,1.26.65,1.88.35,1,.71,2,1.08,3,.25.69.5,1.37.76,2.05,1.14,3.03,2.34,6.03,3.59,9.01.24.58.48,1.16.74,1.74.34.81.68,1.61,1.04,2.41.7,1.6,1.42,3.19,2.17,4.78.36.79.74,1.59,1.12,2.38.37.79.75,1.58,1.14,2.36.38.79.77,1.56,1.16,2.34.79,1.56,1.59,3.11,2.4,4.65.4.77.81,1.54,1.23,2.31.82,1.53,1.67,3.06,2.53,4.57.42.76.85,1.51,1.3,2.26.43.75.87,1.5,1.32,2.25.88,1.5,1.78,2.99,2.71,4.46,2.28,3.69,4.66,7.32,7.14,10.88,2.45,3.57,5.01,7.07,7.65,10.5l-6.35,4.85c-1.63-2.12-3.23-4.27-4.8-6.44-3.66-5.07-7.14-10.27-10.45-15.59-.94-1.52-1.87-3.05-2.79-4.59-2.74-4.63-5.35-9.34-7.82-14.13-1.23-2.4-2.43-4.82-3.6-7.26-1.94-4.06-3.78-8.19-5.52-12.36-.34-.83-.69-1.67-1.03-2.51-1.7-4.2-3.29-8.44-4.78-12.74-.3-.86-.59-1.72-.88-2.58-1.16-3.45-2.24-6.94-3.26-10.45-.26-.88-.51-1.76-.75-2.64-.3-1.07-.59-2.15-.88-3.23-.64-2.41-1.25-4.84-1.82-7.28-.02-.07-.04-.14-.05-.22-.21-.87-.41-1.75-.6-2.63-.21-.9-.4-1.8-.59-2.7-.25-1.14-.48-2.28-.71-3.42-.31-1.58-.61-3.16-.9-4.75-.16-.91-.32-1.82-.48-2.74-.16-.92-.31-1.83-.45-2.75-.11-.69-.22-1.37-.32-2.06-.09-.59-.18-1.18-.26-1.77-.35-2.41-.67-4.83-.95-7.27-.07-.61-.14-1.22-.2-1.84-.09-.79-.18-1.58-.25-2.38-.1-.9-.18-1.81-.26-2.72-.07-.74-.14-1.49-.19-2.24-.05-.58-.1-1.16-.15-1.75-.14-1.98-.27-3.97-.37-5.96-.03-.51-.06-1.01-.07-1.51-.04-.73-.07-1.45-.1-2.18-.06-1.36-.1-2.72-.13-4.08-.02-.58-.03-1.16-.03-1.74-.02-.64-.03-1.28-.03-1.92-.01-.95-.02-1.91-.02-2.87s.01-1.91.02-2.86c0-.66.01-1.32.03-1.98.01-.69.02-1.39.04-2.08.03-1.15.06-2.29.11-3.43.12-3.19.3-6.36.53-9.52.05-.73.11-1.46.17-2.19.05-.69.11-1.38.18-2.07.07-.84.15-1.67.24-2.5.05-.58.11-1.17.17-1.75.19-1.82.4-3.64.63-5.45.05-.37.1-.74.15-1.11.09-.76.19-1.51.3-2.26.1-.72.2-1.44.31-2.15.13-.92.27-1.84.42-2.75.51-3.26,1.09-6.5,1.72-9.71.14-.75.29-1.5.45-2.25.16-.79.32-1.58.5-2.37.14-.66.28-1.31.43-1.96.2-.9.4-1.79.61-2.68.41-1.79.85-3.56,1.3-5.33.21-.81.41-1.61.63-2.41.04-.15.07-.29.11-.42.21-.8.43-1.59.64-2.37.5-1.79,1.01-3.57,1.54-5.34.53-1.74,1.06-3.48,1.62-5.2.28-.87.56-1.73.85-2.59.28-.86.58-1.71.87-2.57,1.18-3.42,2.43-6.82,3.74-10.18,1.97-5.04,4.09-10,6.35-14.89,1.13-2.44,2.29-4.86,3.49-7.27.81-1.6,1.62-3.19,2.45-4.78.83-1.58,1.68-3.15,2.54-4.72,1.73-3.13,3.51-6.22,5.35-9.27.47-.77.93-1.53,1.4-2.29.47-.75.94-1.51,1.41-2.26.48-.76.96-1.51,1.44-2.26,1.45-2.24,2.93-4.46,4.44-6.66,1.29-1.87,2.61-3.73,3.94-5.57.94-1.3,1.91-2.57,2.87-3.85.34-.45.67-.92,1.02-1.37h0c9.13-11.97,19.25-23.16,30.23-33.44l5.46,5.86c-10.66,9.96-20.49,20.82-29.34,32.44h-.01c-.51.66-1.01,1.33-1.51,2-.52.71-1.05,1.43-1.58,2.14-.52.69-1.02,1.39-1.52,2.09-.51.7-1.01,1.4-1.49,2.11-.51.71-1,1.41-1.48,2.13-1.48,2.13-2.92,4.28-4.31,6.46-.95,1.45-1.87,2.91-2.77,4.39-.46.73-.91,1.47-1.35,2.21-.46.74-.9,1.48-1.33,2.23-.44.74-.88,1.49-1.31,2.24-.44.75-.87,1.5-1.29,2.26-.43.76-.85,1.51-1.26,2.27-.43.76-.84,1.52-1.24,2.28-1.24,2.29-2.44,4.6-3.6,6.93-.78,1.55-1.54,3.12-2.28,4.69-.38.79-.75,1.58-1.11,2.37-.38.79-.74,1.58-1.09,2.37-.64,1.42-1.27,2.85-1.89,4.29-.41.97-.82,1.94-1.22,2.92-.34.8-.67,1.61-.99,2.42-.33.81-.65,1.62-.97,2.44-.64,1.63-1.26,3.26-1.86,4.91-.64,1.73-1.25,3.46-1.85,5.2-.2.58-.4,1.17-.6,1.75-.25.75-.5,1.5-.74,2.26-.21.63-.41,1.27-.61,1.9-.42,1.29-.82,2.6-1.2,3.9-.26.85-.51,1.69-.75,2.54-.25.85-.49,1.7-.72,2.55-.2.71-.4,1.43-.58,2.14-.34,1.27-.67,2.53-.99,3.8-.37,1.45-.72,2.9-1.06,4.36-.41,1.73-.8,3.47-1.16,5.22-.19.87-.37,1.74-.54,2.62-1.46,7.24-2.61,14.59-3.45,22.04-.11.92-.21,1.85-.3,2.78-.09.86-.17,1.72-.25,2.59-.06.57-.11,1.13-.15,1.7-.02.24-.05.49-.06.74-.07.76-.13,1.53-.18,2.29-.24,3.25-.42,6.51-.54,9.79-.03.92-.06,1.85-.08,2.77-.03,1.05-.05,2.11-.07,3.17v.23Z"/>
      <path class="cls-1" d="M108.41,215.08c-1.24,2.29-2.43,4.6-3.6,6.93,1.16-2.33,2.36-4.64,3.6-6.93Z"/>
      <path class="cls-1" d="M116.55,475.15c2.29,3.69,4.67,7.31,7.14,10.88-2.48-3.56-4.86-7.19-7.14-10.88Z"/>
      <path class="cls-1" d="M123.27,190.74c-1.47,2.13-2.9,4.28-4.31,6.46,1.39-2.18,2.83-4.33,4.31-6.46Z"/>
      <path class="cls-1" d="M130.86,180.27c-.51.66-1.01,1.33-1.52,2,.5-.67,1-1.34,1.51-2h.01Z"/>
      <path class="cls-1" d="M131.35,496.52h-.01c-2.64-3.42-5.2-6.92-7.65-10.49,2.47,3.56,5.02,7.06,7.66,10.49Z"/>
      <path class="cls-2" d="M542.17,338.09c0,.88-.01,1.76-.02,2.64,0,.88-.02,1.75-.05,2.63-.01.69-.03,1.37-.06,2.06-.06,1.85-.15,3.69-.27,5.53-.02.38-.05.76-.08,1.14-.03.57-.07,1.14-.12,1.7-.07.93-.14,1.86-.23,2.79-.04.51-.09,1.01-.14,1.52-.04.43-.08.87-.13,1.3-.39,3.72-.87,7.4-1.45,11.06-.16.96-.32,1.92-.49,2.88-.05.29-.1.59-.15.88-.13.76-.27,1.51-.42,2.27-.17.91-.35,1.82-.54,2.73-.14.69-.28,1.38-.43,2.07-.69,3.18-1.45,6.34-2.28,9.46-.12.46-.25.93-.38,1.39-.39,1.42-.79,2.84-1.21,4.24-.24.8-.48,1.6-.73,2.4-.81,2.61-1.68,5.2-2.59,7.77-.2.58-.41,1.14-.62,1.71-.29.81-.59,1.61-.89,2.4-.22.58-.44,1.15-.67,1.73-.89,2.26-1.81,4.5-2.77,6.71-.24.57-.48,1.12-.73,1.68-.22.5-.44.99-.66,1.48-.31.67-.61,1.33-.92,1.99-.06.13-.13.27-.19.4-.3.64-.6,1.28-.91,1.92-.57,1.18-1.15,2.36-1.75,3.53-.3.6-.61,1.2-.92,1.8-.22.44-.45.87-.68,1.3-.38.73-.77,1.45-1.16,2.17-.68,1.24-1.36,2.48-2.07,3.71-.64,1.13-1.3,2.26-1.97,3.39-.69,1.15-1.39,2.3-2.1,3.43-.35.57-.71,1.14-1.07,1.7-1.87,2.93-3.81,5.81-5.81,8.63-.71.99-1.42,1.98-2.14,2.95-.4.54-.8,1.08-1.2,1.61-.8,1.07-1.62,2.13-2.44,3.18-.04.04-.07.08-.09.12-.8,1.01-1.61,2.01-2.42,3-.84,1.04-1.7,2.06-2.56,3.08-.87,1.02-1.74,2.03-2.63,3.03-.88,1-1.78,1.99-2.68,2.97-1.8,1.96-3.64,3.88-5.52,5.77-1.87,1.89-3.79,3.74-5.73,5.56-.01,0-.02.01-.03.02-.98.91-1.97,1.81-2.96,2.7-.68.61-1.37,1.22-2.06,1.82-7.62,6.62-15.72,12.7-24.26,18.16-3.11,1.98-6.27,3.89-9.49,5.7-1.17.66-2.35,1.31-3.53,1.95-2.37,1.28-4.76,2.5-7.19,3.69-4.84,2.37-9.79,4.55-14.85,6.54-2.52.99-5.07,1.93-7.65,2.83-.65.22-1.3.45-1.95.66-1.93.66-3.88,1.28-5.84,1.87h-.06l-61.2,2.23-24.41-18.85-48.83-55.31-31.76-50.84-10.78-42.48-17.71-15.76-21.94-55.01,13.9-13.9,19.24,28.61c3.65,5.43,7.76,10.53,12.3,15.24,11.32,11.75,19.27,26.32,23.03,42.19l3.41,14.4,17.98,16.77,32.69,47.58,12.66,52.2,79.97-21.9,37.95-14.72,8.45-12.22,69.98-42.79v-10.72l22.22-28.32-20.48-29.66-19.58-5.58-10.4-30.2-22.29,21.54-33.19,10.6-9.77-8.37-1.78-8.6-.5-13.13-9.69,6.92h-4.87l-23.83-36.14-8.19-27.85,20.98-.96,16.08,25.32,51.16,26.2,26.27-7.32,17.2,20.14,39.72,5.71c.31,3.19.54,6.4.7,9.62.01.14.01.28.02.41.04.73.07,1.46.09,2.18.09,2.46.14,4.94.14,7.42Z"/>
      <path class="cls-2" d="M394.43,393.85l-4.17-6.82-8.81,5.38-7.72,4.71-18.2-29.81,7.71-4.71,8.82-5.38-5.38-8.81-21.42-35.07h-10.97l7.98-4.88-5.38-8.81-16.52,10.09-18.31-29.97,16.53-10.09-11.14-5.3-39.53,24.15,11.35,5.16,13.98-8.54,18.31,29.98,5.38,8.81,24.4,39.94,5.38,8.82,18.2,29.8,5.38,8.81,8.81-5.38,16.53-10.09-1.21-1.99ZM325.75,318.56l7.72-4.72,24.39,39.95-7.71,4.71-24.4-39.94Z"/>
      <polygon class="cls-2" points="409.77 381.16 407.34 391.2 397.3 388.77 399.73 378.74 409.77 381.16"/>
      <path class="cls-1" d="M424.62,606.01l-7.02,2.07-7.77-26.43-7.4,2.18,3.01-8.65,2.3-.68,4.85-1.42,2.17-.64,9.87,33.57Z"/>
      <path class="cls-1" d="M440.73,585.66c-9.48-.99-16.02-16.42-2.66-22.36,4.4-1.96,9.28-1.25,12.53,1.46,2.4,2.03,4.39,6.13,4.26,9.16-.11,2.99-4.23,22.1-4.23,22.1l-8.11,3.6,2.89-14.7c-1.48.62-3.14.92-4.69.74ZM440.83,569.77c-3.07,1.36-3.47,4.13-2.43,6.32l.04.08c.52,1.17,1.41,2.02,2.49,2.5,1.14.55,2.48.62,3.87,0l.29-.13c2.2-1.17,3.17-3.87,2.16-6.2-.23-.66-.63-1.28-1.17-1.78-1.35-1.25-3.4-1.62-5.24-.8Z"/>
      <path class="cls-1" d="M476.34,542.18l3.7,5.92-9.43,5.89,1.9,5.5c.12-.14.24-.29.33-.48,1.72-2.61,4.87-4.37,7.94-4.47,9.72-.29,18.61,14.51,6.03,22.37-5.51,3.45-12.48,2.22-15.95-2.65l6.27-3.92c1.63,1.49,4.1,1.76,6.05.54,2.31-1.44,3-4.45,1.59-6.71-1.44-2.31-4.45-3-6.76-1.56-1.96,1.22-2.8,3.56-2.17,5.68l-.29-.03-4.09,1.16-2.1.54-7.11-18.98,14.09-8.8Z"/>
      <path class="cls-1" d="M504.12,520.18l4.51,5.32-8.48,7.18,2.68,5.17c.1-.16.19-.32.25-.52,1.33-2.83,4.19-5.02,7.21-5.57,9.58-1.68,20.51,11.68,9.18,21.27-4.96,4.2-12.03,3.99-16.16-.33l5.64-4.78c1.83,1.24,4.31,1.15,6.07-.34,2.08-1.76,2.33-4.84.61-6.87-1.76-2.08-4.84-2.33-6.92-.57-1.76,1.49-2.25,3.92-1.33,5.93l-.29.02-3.88,1.73-2,.84-9.77-17.76,12.68-10.74Z"/>
      <path class="cls-1" d="M176.31,522.9l1.72,1.41,4.85,3.97c4.38,3.59,4.88,10,1.3,14.39-2.82,3.45-7.32,4.47-11.32,3.29l.07,19.4-7.36-6.02.33-18.29-.94-.77-9.09,11.12-5.95-4.87,22.16-27.09,4.23,3.46ZM169.07,535.27l4.23,3.46c1.41,1.15,3.69.93,4.84-.48,1.28-1.56,1.05-3.84-.36-5l-4.23-3.46-4.48,5.48Z"/>
      <path class="cls-1" d="M210.11,548.62l-18.71,29.57-6.34-4.01,18.71-29.57,6.34,4.01Z"/>
      <path class="cls-1" d="M228.02,558.64l1.35,14.63,12.06-8.38,8.53,3.97-19.21,11.7-.51.34-6.65,14.28-7.38-3.44,6.65-14.28-.06-.61-3.41-22.23,8.63,4.02Z"/>
      <path class="cls-1" d="M273.72,575.93l4.57,37.75-7.73-2.22-.82-8.12-13.91-4-5.02,6.44-7.73-2.22,23.95-29.54,6.7,1.93ZM268.96,596.35l-1.42-11.87-7.34,9.34,8.76,2.52Z"/>
      <path class="cls-1" d="M306.42,582.63l4.33.44c9.53.97,16.7,9.57,15.72,19.27-.97,9.53-9.73,16.51-19.25,15.55l-4.33-.44-7.62-.77,3.53-34.82,7.62.77ZM303.61,610.34l4.33.44c5.2.53,9.98-3.54,10.51-8.73l.11-1.04c.55-5.37-3.35-10.14-8.54-10.67l-4.33-.44-2.08,20.44Z"/>
      <path class="cls-1" d="M348.59,584.45l.52,7.33.44,6.24,4.49-.32,4.71-.33,4.27-.3.33-.02-.44-6.24-.52-7.33,7.66-.54.52,7.33.46,6.46.52,7.33.97,13.79-7.66.54-.97-13.79v-.11s-.34.02-.34.02l-4.27.3-4.71.33-4.49.32v.11s.98,13.79.98,13.79l-7.66.54-.97-13.79-.52-7.33-.46-6.46-.52-7.33,7.66-.54Z"/>
      <g>
        <path class="cls-1" d="M195.25,85.55l3.04-1.56,36.11,17.19-14.48-28.27,1.14-.58,7.59-3.89,1.14-.58,23.32,45.53-8.73,4.47-36.39-16.81,14.67,28.65-10.06,5.15-23.61-46.1,6.26-3.21Z"/>
        <path class="cls-1" d="M287.5,52.8l31.82,45.76-11.55,2.42-6.64-9.96-20.79,4.35-2.09,11.79-11.55,2.42,10.78-54.68,10.01-2.09ZM295.33,82.51l-9.98-14.39-3.11,17.13,13.09-2.74Z"/>
        <path class="cls-1" d="M367.04,55.94l-7.41,7.06s.01-.35-.99-1.42c-1-1.07-2.02-1.45-2.02-1.45-2.02-1.45-6.82-1.59-9.24-.97-2.78,1.3-3.21,4.06-.87,6.21,2,2.14,5.75,2.94,8.46,4.06,5.09,1.88,9.14,4.43,11.06,8.99,2.9,6.32,1.67,13.22-3.26,17.58-3.52,3.01-9.77,5.6-19.65,3.23-9.88-2.37-12.11-8.33-12.11-8.33l8.79-7.37s1.62,3.17,5.34,5.01c4.06,1.85,7.51,1.26,9.61-.06,1.75-1.33,1.85-4.45-.16-6.24-2-2.14-4.4-2.21-10.5-4.81-3.72-1.84-8.44-4.75-9.69-8.95-.63-1.75-.57-3.83-.52-5.56.15-5.19,2.68-9.63,6.88-12.28,7.7-4.97,21.03-3.19,26.27,5.28Z"/>
        <path class="cls-1" d="M425.13,68.14l-8.72,5.36s.08-.34-.67-1.59c-.75-1.25-1.67-1.83-1.67-1.83-1.67-1.83-6.34-2.97-8.83-2.87-2.99.7-3.98,3.31-2.14,5.9,1.51,2.51,5.01,4.07,7.43,5.73,4.59,2.9,8.01,6.23,8.95,11.09,1.52,6.79-1.12,13.28-6.85,16.52-4.07,2.22-10.72,3.45-19.9-.93-9.17-4.37-10.11-10.67-10.11-10.67l10.14-5.38s.93,3.44,4.18,6.01c3.59,2.66,7.09,2.8,9.41,1.94,1.99-.94,2.73-3.97,1.14-6.14-1.51-2.51-3.84-3.08-9.26-6.89-3.25-2.58-7.27-6.41-7.62-10.77-.26-1.85.24-3.87.65-5.55,1.23-5.05,4.63-8.86,9.28-10.57,8.56-3.26,21.23,1.25,24.6,10.63Z"/>
        <path class="cls-1" d="M463.16,75.89l2.91,1.55,8.2,4.36c7.4,3.93,10.05,12.99,6.2,20.24-3.03,5.7-9.21,8.4-15.33,7.8l5.94,27.75-12.43-6.6-5.03-26.27-1.59-.84-9.78,18.4-10.05-5.34,23.82-44.83,7.14,3.79ZM456.43,95.57l7.14,3.79c2.38,1.27,5.6.32,6.84-2.02,1.38-2.59.36-5.79-2.02-7.05l-7.14-3.79-4.82,9.07Z"/>
      </g>
    </g>
  </g>
</svg>