<svg xmlns="http://www.w3.org/2000/svg" viewBox="0 0 64 64" role="img" aria-label="Juventus crest (stylized placeholder)">
  <defs>
    <clipPath id="juv-shield">
      <path d="M14 10h36v24c0 12-8 19-18 24-10-5-18-12-18-24V10Z"/>
    </clipPath>
  </defs>
  <path d="M14 10h36v24c0 12-8 19-18 24-10-5-18-12-18-24V10Z" fill="#fff"/>
  <g clip-path="url(#juv-shield)">
    <rect x="20" y="10" width="6" height="52" fill="#000"/>
    <rect x="38" y="10" width="6" height="52" fill="#000"/>
  </g>
  <path d="M14 10h36v24c0 12-8 19-18 24-10-5-18-12-18-24V10Z" fill="none" stroke="#000" stroke-width="2.2"/>
  <text x="32" y="33" font-family="Arial, sans-serif" font-size="11" font-weight="800" fill="#000" text-anchor="middle" dominant-baseline="central" style="paint-order:stroke" stroke="#fff" stroke-width="2.6">JUV</text>
</svg>
