<svg xmlns="http://www.w3.org/2000/svg" viewBox="0 0 64 64" role="img" aria-label="Sporting CP crest (stylized placeholder)">
  <defs>
    <clipPath id="scp-shield">
      <path d="M12 10h40v26c0 12-9 19-20 24-11-5-20-12-20-24V10Z"/>
    </clipPath>
  </defs>
  <path d="M12 10h40v26c0 12-9 19-20 24-11-5-20-12-20-24V10Z" fill="#016b3a"/>
  <g clip-path="url(#scp-shield)">
    <rect x="12" y="16" width="40" height="6" fill="#fff"/>
    <rect x="12" y="28" width="40" height="6" fill="#fff"/>
    <rect x="12" y="40" width="40" height="6" fill="#fff"/>
  </g>
  <path d="M12 10h40v26c0 12-9 19-20 24-11-5-20-12-20-24V10Z" fill="none" stroke="#fff" stroke-width="2.2"/>
  <text x="32" y="33" font-family="Arial, sans-serif" font-size="12" font-weight="800" fill="#016b3a" text-anchor="middle" dominant-baseline="central">SCP</text>
</svg>
